<?xml version="1.0" encoding="UTF-8" standalone="no"?>
<svg xmlns="http://www.w3.org/2000/svg" width="512" height="512" viewBox="0 0 512 512">
  <circle cx="149" cy="309" r="28" fill="#FF69B4" />
  <circle cx="73" cy="62" r="12" fill="#FF69B4" />
  <circle cx="279" cy="131" r="34" fill="#FF69B4" />
  <circle cx="420" cy="458" r="12" fill="#FF69B4" />
  <circle cx="312" cy="346" r="14" fill="#FF69B4" />
  <circle cx="172" cy="402" r="18" fill="#FF69B4" />
  <circle cx="369" cy="328" r="38" fill="#FF69B4" />
  <circle cx="192" cy="285" r="22" fill="#FF69B4" />
  <circle cx="99" cy="191" r="18" fill="#FF69B4" />
  <circle cx="117" cy="451" r="37" fill="#FF69B4" />
  <circle cx="108" cy="132" r="11" fill="#FF69B4" />
  <circle cx="75" cy="372" r="38" fill="#FF69B4" />
  <circle cx="201" cy="379" r="31" fill="#FF69B4" />
  <circle cx="356" cy="408" r="31" fill="#FF69B4" />
  <circle cx="256" cy="178" r="10" fill="#FF69B4" />
  <circle cx="69" cy="372" r="28" fill="#FF69B4" />
  <circle cx="239" cy="240" r="12" fill="#FF69B4" />
  <circle cx="198" cy="151" r="28" fill="#FF69B4" />
  <circle cx="278" cy="180" r="38" fill="#FF69B4" />
  <circle cx="363" cy="460" r="29" fill="#FF69B4" />
</svg>